<svg width="24" height="16" viewBox="0 0 24 16" fill="none" xmlns="http://www.w3.org/2000/svg">
  <path fill-rule="evenodd" clip-rule="evenodd" d="M0 0.933333C0 0.417868 0.417868 0 0.933333 0H22.2667C22.7821 0 23.2 0.417868 23.2 0.933333C23.2 1.4488 22.7821 1.86667 22.2667 1.86667H0.933333C0.417868 1.86667 0 1.4488 0 0.933333Z" fill="#E7F7F8" />
  <path fill-rule="evenodd" clip-rule="evenodd" d="M0 7.60008C0 7.08462 0.417868 6.66675 0.933333 6.66675H22.2667C22.7821 6.66675 23.2 7.08462 23.2 7.60008C23.2 8.11555 22.7821 8.53341 22.2667 8.53341H0.933333C0.417868 8.53341 0 8.11555 0 7.60008Z" fill="#E7F7F8" />
  <path fill-rule="evenodd" clip-rule="evenodd" d="M0 14.2666C0 13.7511 0.417868 13.3333 0.933333 13.3333H22.2667C22.7821 13.3333 23.2 13.7511 23.2 14.2666C23.2 14.7821 22.7821 15.1999 22.2667 15.1999H0.933333C0.417868 15.1999 0 14.7821 0 14.2666Z" fill="#E7F7F8" />
</svg>